<svg viewBox="0 0 96 96" xmlns="http://www.w3.org/2000/svg"><g id="Layer_1"/><g id="Layer_2"/><g id="Layer_3"/><g id="Layer_4"><g><path d="m83.377 31.952v51.385c0 4.785-3.879 8.664-8.664 8.664h-53.427c-4.785 0-8.664-3.879-8.664-8.664v-70.673c.001-4.785 3.879-8.664 8.664-8.664h35.784z" fill="#aad540"/><path d="m83.377 31.952h-20.531c-3.19 0-5.776-2.586-5.776-5.776v-22.176z" fill="#daf978"/><g fill="#dee4e6"><path d="m35.049 66.866h-5.697l-.998 3.221h-4.439l6.323-17.248h3.909l6.374 17.248h-4.467zm-4.704-3.215h3.706l-1.856-5.979z"/><path d="m45.929 64.232v5.855h-4.157v-17.249h6.881c1.32 0 2.487.243 3.503.728 1.015.485 1.799 1.179 2.358 2.076.553.897.835 1.912.835 3.051 0 1.681-.604 3.023-1.811 4.033-1.201 1.004-2.854 1.506-4.958 1.506zm0-3.21h2.724c.807 0 1.421-.197 1.844-.604.423-.4.632-.97.632-1.703 0-.807-.22-1.45-.654-1.935-.434-.479-1.027-.722-1.777-.733h-2.769z"/><path d="m63.426 63.668-1.703 1.867v4.552h-4.157v-17.249h4.157v7.603l1.444-2.188 3.723-5.415h5.138l-5.827 7.631 5.827 9.617h-4.93z"/></g></g></g></svg>