<svg viewBox="0 0 96 96" xmlns="http://www.w3.org/2000/svg"><g id="Layer_1"/><g id="Layer_2"/><g id="Layer_3"/><g id="Layer_4"><g><path d="m83.377 31.952v51.385c0 4.785-3.879 8.664-8.664 8.664h-53.427c-4.785 0-8.664-3.879-8.664-8.664v-70.673c.001-4.785 3.879-8.664 8.664-8.664h35.784z" fill="#bf4565"/><path d="m83.377 31.952h-20.531c-3.19 0-5.776-2.586-5.776-5.776v-22.176z" fill="#ed7298"/><g fill="#fff"><path d="m39.489 66.861h-5.697l-.998 3.221h-4.439l6.323-17.243h3.909l6.374 17.243h-4.467zm-4.704-3.21h3.706l-1.856-5.984z"/><path d="m51.994 65.394 3.435-12.556h4.648l-5.804 17.243h-4.552l-5.753-17.243h4.608z"/><path d="m65.756 70.082h-4.146v-17.243h4.146z"/></g></g></g></svg>