<?xml version="1.0" encoding="iso-8859-1"?>
<!-- Generator: Adobe Illustrator 19.0.0, SVG Export Plug-In . SVG Version: 6.00 Build 0)  -->
<svg version="1.1" id="Layer_1" xmlns="http://www.w3.org/2000/svg" xmlns:xlink="http://www.w3.org/1999/xlink" x="0px" y="0px"
	 viewBox="0 0 512 512" style="enable-background:new 0 0 512 512;" xml:space="preserve">
<path style="fill:#707487;" d="M75.852,75.852H56.889c-10.472,0-18.963,8.489-18.963,18.963v28.444h56.889V94.815
	C94.815,84.341,86.324,75.852,75.852,75.852z"/>
<path style="fill:#5B5D6E;" d="M80.593,76.523c-1.524-0.395-3.093-0.671-4.741-0.671H56.889c-10.472,0-18.963,8.489-18.963,18.963
	v28.444H66.37V94.815C66.37,85.989,72.428,78.637,80.593,76.523z"/>
<path style="fill:#7F8499;" d="M349.195,72.613c-4.818-9.637-14.667-15.724-25.441-15.724H188.247
	c-10.775,0-20.623,6.087-25.441,15.724l-20.583,41.165h227.556L349.195,72.613z"/>
<path style="fill:#FFDC64;" d="M474.074,113.778H37.926C16.98,113.778,0,130.758,0,151.704v265.481
	c0,20.946,16.98,37.926,37.926,37.926h436.148c20.946,0,37.926-16.98,37.926-37.926V151.704
	C512,130.758,495.02,113.778,474.074,113.778z"/>
<circle style="fill:#7F8499;" cx="256" cy="284.444" r="123.259"/>
<circle style="fill:#464655;" cx="256" cy="284.444" r="94.815"/>
<path style="fill:#5B5D6E;" d="M256,341.333c-31.371,0-56.889-25.518-56.889-56.889s25.518-56.889,56.889-56.889
	s56.889,25.518,56.889,56.889S287.371,341.333,256,341.333z M256,246.519c-20.916,0-37.926,17.013-37.926,37.926
	S235.084,322.37,256,322.37s37.926-17.013,37.926-37.926C293.926,263.532,276.916,246.519,256,246.519z"/>
<path style="fill:#707487;" d="M417.185,199.111h47.407c5.236,0,9.481-4.245,9.481-9.481v-28.444c0-5.236-4.245-9.481-9.481-9.481
	h-47.407c-5.236,0-9.481,4.245-9.481,9.481v28.444C407.704,194.866,411.949,199.111,417.185,199.111z"/>
<circle style="fill:#f6f8f9;" cx="279.704" cy="260.741" r="23.704"/>
<path style="fill:#FFC850;" d="M37.926,113.778C16.98,113.778,0,130.758,0,151.704v265.481c0,20.946,16.98,37.926,37.926,37.926
	h436.148c20.946,0,37.926-16.98,37.926-37.926H189.63c-83.783,0-151.704-67.921-151.704-151.704V113.778z"/>
<path style="fill:#7F8499;" d="M436.148,199.111h9.481c5.236,0,9.481-4.245,9.481-9.481v-28.444c0-5.236-4.245-9.481-9.481-9.481
	h-9.481c-5.236,0-9.482,4.245-9.482,9.481v28.444C426.667,194.866,430.912,199.111,436.148,199.111z"/>
<path style="fill:#707487;" d="M235.654,56.889h-47.407c-10.775,0-20.623,6.087-25.441,15.724l-20.583,41.165h47.407l20.583-41.165
	C215.031,62.976,224.879,56.889,235.654,56.889z"/>
<g>
</g>
<g>
</g>
<g>
</g>
<g>
</g>
<g>
</g>
<g>
</g>
<g>
</g>
<g>
</g>
<g>
</g>
<g>
</g>
<g>
</g>
<g>
</g>
<g>
</g>
<g>
</g>
<g>
</g>
</svg>
