<svg viewBox="0 0 96 96" xmlns="http://www.w3.org/2000/svg"><g id="Layer_1"/><g id="Layer_2"/><g id="Layer_3"/><g id="Layer_4"><g><path d="m83.377 31.952v51.385c0 4.785-3.879 8.664-8.664 8.664h-53.427c-4.785 0-8.664-3.879-8.664-8.664v-70.673c.001-4.785 3.879-8.664 8.664-8.664h35.784z" fill="#e24f4b"/><path d="m83.377 31.952h-20.531c-3.19 0-5.776-2.586-5.776-5.776v-22.176z" fill="#ff9292"/><g fill="#fff"><path d="m44.722 67.955c-.637.711-1.574 1.28-2.809 1.715-1.23.434-2.578.654-4.05.654-2.256 0-4.061-.694-5.409-2.076-1.354-1.382-2.076-3.305-2.172-5.765l-.011-1.495c0-1.698.299-3.181.902-4.45.598-1.263 1.455-2.239 2.578-2.922 1.117-.682 2.408-1.027 3.875-1.027 2.149 0 3.819.491 5.009 1.478 1.184.981 1.878 2.448 2.076 4.4h-4.005c-.141-.965-.451-1.653-.925-2.064-.474-.412-1.145-.615-2.014-.615-1.038 0-1.844.44-2.414 1.325-.57.886-.857 2.149-.863 3.79v1.043c0 1.72.293 3.018.88 3.881.592.863 1.517 1.297 2.781 1.297 1.077 0 1.884-.243 2.414-.722v-2.679h-2.888v-2.853h7.045z"/><path d="m51.569 70.087h-4.146v-17.249h4.146z"/><path d="m65.321 63.217h-6.706v6.87h-4.157v-17.249h11.535v3.209h-7.378v3.971h6.706z"/></g></g></g></svg>