<svg viewBox="0 0 96 96" xmlns="http://www.w3.org/2000/svg"><g id="Layer_1"/><g id="Layer_2"/><g id="Layer_3"/><g id="Layer_4"><g><path d="m83.377 31.952v51.385c0 4.785-3.879 8.664-8.664 8.664h-53.427c-4.785 0-8.664-3.879-8.664-8.664v-70.673c.001-4.785 3.879-8.664 8.664-8.664h35.784z" fill="#f7a12f"/><path d="m83.377 31.952h-20.531c-3.19 0-5.776-2.586-5.776-5.776v-22.176z" fill="#ffbe71"/><g fill="#fff"><path d="m33.966 70.081h-4.146v-17.242h4.146z"/><path d="m45.755 65.501c0-.609-.214-1.083-.643-1.421-.434-.344-1.19-.694-2.267-1.055-1.083-.367-1.969-.716-2.657-1.055-2.234-1.1-3.35-2.606-3.35-4.524 0-.959.276-1.799.835-2.533.558-.728 1.342-1.297 2.363-1.703 1.015-.406 2.16-.609 3.435-.609 1.241 0 2.352.22 3.333.66.981.446 1.749 1.072 2.29 1.89.547.818.818 1.754.818 2.803h-4.146c0-.705-.214-1.247-.643-1.636-.434-.389-1.015-.581-1.749-.581-.745 0-1.331.164-1.76.491s-.643.745-.643 1.252c0 .44.237.84.711 1.201s1.303.733 2.499 1.111c1.19.384 2.172.795 2.939 1.241 1.861 1.072 2.792 2.555 2.792 4.439 0 1.512-.57 2.696-1.703 3.553-1.139.863-2.696 1.292-4.682 1.292-1.393 0-2.662-.248-3.796-.75s-1.985-1.19-2.555-2.059c-.575-.874-.863-1.878-.863-3.018h4.174c0 .925.237 1.608.716 2.042.474.44 1.252.66 2.324.66.688 0 1.23-.147 1.63-.446.4-.291.598-.709.598-1.245z"/><path d="m66.647 61.813c0 1.686-.31 3.176-.936 4.467-.62 1.297-1.506 2.29-2.657 2.989s-2.459 1.049-3.926 1.049c-1.472 0-2.775-.338-3.909-1.01-1.139-.677-2.025-1.641-2.662-2.899-.632-1.252-.97-2.696-.998-4.321v-.97c0-1.692.31-3.181.931-4.473s1.506-2.29 2.662-2.989c1.156-.705 2.476-1.055 3.954-1.055 1.461 0 2.764.344 3.909 1.038 1.145.699 2.031 1.686 2.668 2.967.637 1.286.959 2.758.965 4.416v.791zm-4.225-.722c0-1.709-.288-3.012-.863-3.903-.57-.886-1.388-1.331-2.454-1.331-2.087 0-3.187 1.562-3.305 4.693l-.011 1.263c0 1.692.276 2.989.84 3.898.558.908 1.393 1.365 2.499 1.365 1.049 0 1.856-.446 2.425-1.337.57-.897.857-2.177.869-3.852z"/></g></g></g></svg>