<svg viewBox="0 0 96 96" xmlns="http://www.w3.org/2000/svg"><g id="Layer_1"/><g id="Layer_2"/><g id="Layer_3"/><g id="Layer_4"><g><path d="m83.377 31.952v51.385c0 4.785-3.879 8.664-8.664 8.664h-53.427c-4.785 0-8.664-3.879-8.664-8.664v-70.673c.001-4.785 3.879-8.664 8.664-8.664h35.784z" fill="#1ca626"/><path d="m83.377 31.952h-20.531c-3.19 0-5.776-2.586-5.776-5.776v-22.176z" fill="#62dd68"/><g fill="#fff"><path d="m29.075 52.838 3.852 11.997 3.835-11.997h5.471v17.248h-4.168v-4.027l.4-8.246-4.168 12.274h-2.747l-4.18-12.285.4 8.258v4.027h-4.157v-17.249z"/><path d="m49.03 64.232v5.855h-4.157v-17.249h6.881c1.32 0 2.487.243 3.503.728 1.015.485 1.799 1.179 2.358 2.076.553.897.835 1.912.835 3.051 0 1.681-.604 3.023-1.811 4.033-1.201 1.004-2.854 1.506-4.958 1.506zm0-3.21h2.724c.807 0 1.421-.197 1.844-.604.423-.4.632-.97.632-1.703 0-.807-.22-1.45-.654-1.935-.434-.479-1.027-.722-1.777-.733h-2.769z"/><path d="m64.068 59.793h1.884c1.489 0 2.234-.733 2.234-2.194 0-.564-.175-1.032-.53-1.388-.355-.361-.857-.541-1.506-.541-.53 0-.987.152-1.376.463-.395.31-.587.688-.587 1.151h-3.993c0-.908.254-1.72.756-2.431.508-.711 1.207-1.263 2.104-1.664.897-.4 1.884-.598 2.956-.598 1.918 0 3.429.44 4.524 1.314 1.1.88 1.647 2.081 1.647 3.616 0 .739-.226 1.444-.682 2.098-.451.66-1.111 1.196-1.98 1.608.914.333 1.636.835 2.155 1.512.519.671.778 1.506.778 2.504 0 1.54-.587 2.769-1.777 3.694-1.184.925-2.736 1.388-4.665 1.388-1.128 0-2.177-.214-3.142-.649-.97-.429-1.703-1.027-2.2-1.788s-.745-1.63-.745-2.6h4.016c0 .53.209.987.637 1.376.429.384.953.581 1.574.581.705 0 1.263-.197 1.681-.587.423-.389.632-.891.632-1.5 0-.869-.22-1.483-.654-1.844-.434-.367-1.032-.547-1.799-.547h-1.94v-2.974z"/></g></g></g></svg>