<svg id="Layer_1" enable-background="new 0 0 512 512" viewBox="0 0 512 512" xmlns="http://www.w3.org/2000/svg"><g><path d="m448.968 168.463v280.281c0 26.099-21.157 47.256-47.256 47.256h-291.423c-26.099 0-47.256-21.157-47.256-47.256v-385.488c-.001-26.099 21.156-47.256 47.256-47.256h195.188z" fill="#1ca626"/><path d="m448.968 168.463h-111.987c-17.399 0-31.504-14.105-31.504-31.504v-120.959z" fill="#62dd68"/><path d="m305.476 16v120.959c0 17.399 14.105 31.504 31.504 31.504h111.986" fill="#62dd68"/><g fill="#fff"><path d="m152.767 282.397 21.013 65.439 20.921-65.439h29.843v94.051h-22.736v-21.967l2.184-44.949-22.736 66.916h-14.983l-22.798-66.977 2.184 45.011v21.967h-22.674v-94.051h29.782z"/><path d="m261.616 344.544v31.904h-22.674v-94.051h37.534c7.199 0 13.568 1.323 19.106 3.969s9.814 6.399 12.86 11.291c3.015 4.892 4.553 10.43 4.553 16.644 0 9.168-3.292 16.521-9.876 21.998-6.553 5.507-15.568 8.245-27.043 8.245zm0-17.506h14.86c4.4 0 7.753-1.108 10.06-3.292 2.307-2.215 3.446-5.323 3.446-9.322 0-4.4-1.2-7.907-3.569-10.522s-5.599-3.969-9.691-4h-15.106z"/><path d="m381.234 339.683h9.568v16.798h-9.568v19.967h-21.782v-19.967h-36.365l-1.292-13.291 37.658-60.609v-.185h21.782v57.287zm-38.703 0h16.921v-28.92l-1.354 2.184z"/></g></g></svg>