<svg viewBox="0 0 96 96" xmlns="http://www.w3.org/2000/svg"><g id="Layer_1"/><g id="Layer_2"/><g id="Layer_3"/><g id="Layer_4"><g><path d="m83.377 31.952v51.385c0 4.785-3.879 8.664-8.664 8.664h-53.427c-4.785 0-8.664-3.879-8.664-8.664v-70.673c.001-4.785 3.879-8.664 8.664-8.664h35.784z" fill="#b6d146"/><path d="m83.377 31.952h-20.531c-3.19 0-5.776-2.586-5.776-5.776v-22.176z" fill="#e5f48c"/><g fill="#fff"><path d="m27.835 52.84 3.852 11.997 3.835-11.997h5.471v17.243h-4.168v-4.027l.4-8.241-4.168 12.268h-2.747l-4.18-12.279.4 8.252v4.027h-4.157v-17.243z"/><path d="m47.791 64.233v5.849h-4.157v-17.242h6.881c1.32 0 2.487.243 3.503.728 1.015.485 1.799 1.173 2.358 2.07.553.897.835 1.912.835 3.051 0 1.681-.604 3.029-1.811 4.033-1.201 1.01-2.854 1.512-4.958 1.512h-2.651zm0-3.209h2.724c.807 0 1.421-.203 1.844-.604.423-.406.632-.976.632-1.709 0-.807-.22-1.45-.654-1.929s-1.027-.728-1.777-.733h-2.769z"/><path d="m73.545 67.95c-.637.711-1.574 1.286-2.809 1.72-1.23.434-2.578.649-4.05.649-2.256 0-4.061-.688-5.409-2.07-1.354-1.382-2.076-3.305-2.172-5.77l-.011-1.495c0-1.698.299-3.176.902-4.445.598-1.269 1.455-2.245 2.578-2.927 1.117-.682 2.408-1.021 3.875-1.021 2.149 0 3.819.491 5.009 1.472 1.184.981 1.878 2.448 2.076 4.4h-4.005c-.141-.965-.451-1.647-.925-2.059s-1.145-.615-2.014-.615c-1.038 0-1.844.44-2.414 1.326s-.857 2.149-.863 3.79v1.043c0 1.72.293 3.012.88 3.875.592.869 1.517 1.297 2.781 1.297 1.077 0 1.884-.237 2.414-.722v-2.674h-2.888v-2.86h7.045z"/></g></g></g></svg>