<svg id="Layer_1" enable-background="new 0 0 512 512" viewBox="0 0 512 512" xmlns="http://www.w3.org/2000/svg"><g><path d="m448.968 168.463v280.281c0 26.099-21.157 47.256-47.256 47.256h-291.423c-26.099 0-47.256-21.157-47.256-47.256v-385.488c-.001-26.099 21.156-47.256 47.256-47.256h195.188z" fill="#e03303"/><path d="m448.968 168.463h-111.987c-17.399 0-31.504-14.105-31.504-31.504v-120.959z" fill="#e9714f"/><g fill="#fff"><path d="m128.346 347.593v28.858h-20.521v-85.099h33.966c6.492 0 12.276 1.2 17.26 3.6 5.015 2.4 8.891 5.784 11.63 10.214 2.769 4.43 4.123 9.445 4.123 15.045 0 8.307-2.954 14.952-8.891 19.906-5.969 4.984-14.122 7.476-24.459 7.476zm0-15.845h13.445c3.969 0 7.015-1.015 9.076-2.984 2.092-2 3.138-4.799 3.138-8.43 0-3.969-1.077-7.138-3.2-9.507-2.154-2.4-5.076-3.6-8.799-3.63h-13.66z"/><path d="m206.276 347.593v28.858h-20.521v-85.099h33.966c6.492 0 12.276 1.2 17.26 3.6 5.015 2.4 8.891 5.784 11.63 10.214 2.769 4.43 4.123 9.445 4.123 15.045 0 8.307-2.954 14.952-8.891 19.906-5.969 4.984-14.122 7.476-24.459 7.476zm0-15.845h13.445c3.969 0 7.015-1.015 9.076-2.984 2.092-2 3.138-4.799 3.138-8.43 0-3.969-1.077-7.138-3.2-9.507-2.154-2.4-5.076-3.6-8.799-3.63h-13.66z"/><path d="m330.478 307.197h-25.566v69.254h-20.49v-69.254h-25.105v-15.844h71.162v15.844z"/><path d="m370.874 319.627 13.906-28.274h23.444l-23.782 42.211 24.428 42.888h-23.69l-14.306-28.797-14.337 28.797h-23.597l24.367-42.888-23.751-42.211h23.382z"/></g></g></svg>