<svg clip-rule="evenodd" fill-rule="evenodd" height="512" stroke-linejoin="round" stroke-miterlimit="2" viewBox="0 0 32 32" width="512" xmlns="http://www.w3.org/2000/svg"><path d="m15.572 1.928c-3.864 0-7 3.137-7 7 0 3.864 3.136 7 7 7 3.863 0 7-3.136 7-7 0-3.863-3.137-7-7-7zm0 2c2.759 0 5 2.241 5 5 0 2.76-2.241 5-5 5-2.76 0-5-2.24-5-5 0-2.759 2.24-5 5-5z"/><path d="m3.572 27.928h12.428c.552 0 1 .448 1 1s-.448 1-1 1h-13.428c-.553 0-1-.447-1-1 0 0 0-.824 0-2 0-4.97 4.029-9 9-9h5.428c.552 0 1 .448 1 1s-.448 1-1 1h-5.428c-3.866 0-7 3.134-7 7z"/><path d="m21 20h8.317c.552 0 1-.448 1-1s-.448-1-1-1h-8.317c-.552 0-1 .448-1 1s.448 1 1 1z"/><path d="m21 24.992h8.317c.552 0 1-.449 1-1 0-.552-.448-1-1-1h-8.317c-.552 0-1 .448-1 1 0 .551.448 1 1 1z"/><path d="m21 29.983h8.317c.552 0 1-.448 1-1s-.448-1-1-1h-8.317c-.552 0-1 .448-1 1s.448 1 1 1z"/></svg>