<svg viewBox="0 0 96 96" xmlns="http://www.w3.org/2000/svg"><g id="Layer_1"/><g id="Layer_2"/><g id="Layer_3"/><g id="Layer_4"><g><path d="m83.377 31.952v51.385c0 4.785-3.879 8.664-8.664 8.664h-53.427c-4.785 0-8.664-3.879-8.664-8.664v-70.673c.001-4.785 3.879-8.664 8.664-8.664h35.784z" fill="#610353"/><path d="m83.377 31.952h-20.531c-3.19 0-5.776-2.586-5.776-5.776v-22.176z" fill="#bc5eb0"/><g fill="#fff"><path d="m31.488 63.985h-2.251v6.097h-4.157v-17.242h6.785c2.047 0 3.644.451 4.8 1.359 1.151.908 1.726 2.188 1.726 3.847 0 1.196-.243 2.188-.728 2.978s-1.247 1.427-2.279 1.918l3.599 6.966v.175h-4.45zm-2.25-3.198h2.628c.79 0 1.388-.209 1.782-.626.4-.412.598-.993.598-1.737 0-.745-.197-1.331-.604-1.754-.4-.423-.993-.632-1.777-.632h-2.628v4.749z"/><path d="m50.705 66.862h-5.697l-.998 3.221h-4.439l6.323-17.243h3.909l6.374 17.243h-4.467zm-4.704-3.209h3.706l-1.856-5.984z"/><path d="m63.836 63.985h-2.251v6.097h-4.157v-17.242h6.785c2.047 0 3.644.451 4.8 1.359 1.151.908 1.726 2.188 1.726 3.847 0 1.196-.243 2.188-.728 2.978s-1.247 1.427-2.279 1.918l3.599 6.966v.175h-4.45zm-2.251-3.198h2.628c.79 0 1.388-.209 1.782-.626.4-.412.598-.993.598-1.737 0-.745-.197-1.331-.604-1.754-.4-.423-.993-.632-1.777-.632h-2.628v4.749z"/></g></g></g></svg>