<svg viewBox="0 0 96 96" xmlns="http://www.w3.org/2000/svg"><g id="Layer_1"/><g id="Layer_2"/><g id="Layer_3"/><g id="Layer_4"><g><path d="m83.377 31.952v51.385c0 4.785-3.879 8.664-8.664 8.664h-53.427c-4.785 0-8.664-3.879-8.664-8.664v-70.673c.001-4.785 3.879-8.664 8.664-8.664h35.784z" fill="#30348a"/><path d="m83.377 31.952h-20.531c-3.19 0-5.776-2.586-5.776-5.776v-22.176z" fill="#7179c9"/><g fill="#fff"><path d="m40.53 56.045h-5.172v14.039h-4.163v-14.039h-5.076v-3.209h14.411z"/><path d="m52.978 62.763h-6.537v4.123h7.722v3.198h-11.879v-17.248h11.907v3.209h-7.75v3.638h6.537z"/><path d="m62.291 58.572 2.82-5.736h4.749l-4.823 8.551 4.952 8.698h-4.794l-2.905-5.843-2.899 5.843h-4.789l4.941-8.698-4.811-8.551h4.738z"/></g></g></g></svg>