<svg xmlns="http://www.w3.org/2000/svg" xmlns:xlink="http://www.w3.org/1999/xlink" width="95" zoomAndPan="magnify" viewBox="0 0 285 131.249995" height="44" preserveAspectRatio="xMidYMid meet" version="1.0"><defs><g/></defs><g fill="#2d2d37" fill-opacity="1"><g transform="translate(-3.596072, 102.069318)"><g><path d="M 15.25 -83.375 C 16.476562 -84.53125 17.316406 -84.179688 17.765625 -82.328125 C 17.847656 -81.878906 17.910156 -79.734375 17.953125 -75.890625 C 18.003906 -72.046875 17.984375 -66.410156 17.890625 -58.984375 C 17.890625 -53.503906 17.910156 -48.398438 17.953125 -43.671875 C 18.003906 -38.953125 18.050781 -34.800781 18.09375 -31.21875 C 18.132812 -27.632812 18.222656 -24.691406 18.359375 -22.390625 C 18.492188 -20.097656 18.601562 -18.597656 18.6875 -17.890625 C 19.132812 -15.953125 19.773438 -14.429688 20.609375 -13.328125 C 21.453125 -12.222656 22.445312 -11.378906 23.59375 -10.796875 C 24.738281 -10.222656 26.039062 -9.847656 27.5 -9.671875 C 28.957031 -9.492188 30.617188 -9.40625 32.484375 -9.40625 C 36.804688 -9.40625 41.265625 -9.9375 45.859375 -11 C 47.984375 -11.445312 49.753906 -11.710938 51.171875 -11.796875 C 53.203125 -11.972656 54.660156 -11.398438 55.546875 -10.078125 C 56.078125 -9.453125 56.34375 -8.703125 56.34375 -7.828125 C 56.25 -6.765625 55.671875 -5.859375 54.609375 -5.109375 C 53.554688 -4.359375 52.234375 -3.691406 50.640625 -3.109375 C 49.046875 -2.535156 47.273438 -2.070312 45.328125 -1.71875 C 43.390625 -1.363281 41.492188 -1.097656 39.640625 -0.921875 C 37.785156 -0.742188 36.082031 -0.609375 34.53125 -0.515625 C 32.988281 -0.429688 31.773438 -0.390625 30.890625 -0.390625 C 27.171875 -0.390625 24.03125 -0.742188 21.46875 -1.453125 C 18.90625 -2.160156 16.804688 -3.265625 15.171875 -4.765625 C 13.535156 -6.273438 12.296875 -8.265625 11.453125 -10.734375 C 10.617188 -13.210938 10.023438 -16.21875 9.671875 -19.75 C 9.585938 -20.8125 9.519531 -22.222656 9.46875 -23.984375 C 9.425781 -25.753906 9.40625 -27.722656 9.40625 -29.890625 C 9.40625 -32.054688 9.425781 -34.332031 9.46875 -36.71875 C 9.519531 -39.101562 9.585938 -41.445312 9.671875 -43.75 C 10.648438 -61.332031 11.84375 -73.21875 13.25 -79.40625 C 13.78125 -81.4375 14.445312 -82.757812 15.25 -83.375 Z M 15.25 -83.375 "/></g></g></g><g fill="#2d2d37" fill-opacity="1"><g transform="translate(56.451393, 102.069318)"><g><path d="M 9.28125 -53.15625 C 10.164062 -53.507812 11.179688 -53.46875 12.328125 -53.03125 C 13.296875 -52.675781 14.003906 -51.4375 14.453125 -49.3125 C 14.628906 -48.34375 14.804688 -46.796875 14.984375 -44.671875 C 15.160156 -42.546875 15.335938 -39.851562 15.515625 -36.59375 C 15.953125 -26.957031 16.210938 -19.421875 16.296875 -13.984375 C 16.390625 -8.546875 16.257812 -5.164062 15.90625 -3.84375 C 15.550781 -2.25 14.953125 -1.144531 14.109375 -0.53125 C 13.273438 0.0820312 12.148438 0.390625 10.734375 0.390625 C 8.796875 0.390625 7.601562 -0.269531 7.15625 -1.59375 C 6.800781 -2.5625 6.644531 -5.738281 6.6875 -11.125 C 6.738281 -16.519531 6.941406 -24.210938 7.296875 -34.203125 C 7.472656 -39.148438 7.601562 -42.96875 7.6875 -45.65625 C 7.78125 -48.351562 7.867188 -49.96875 7.953125 -50.5 C 8.046875 -51.300781 8.222656 -51.898438 8.484375 -52.296875 C 8.742188 -52.691406 9.007812 -52.976562 9.28125 -53.15625 Z M 9.28125 -69.0625 C 9.894531 -69.238281 10.664062 -69.304688 11.59375 -69.265625 C 12.519531 -69.222656 13.25 -69.066406 13.78125 -68.796875 C 14.664062 -68.359375 15.328125 -67.804688 15.765625 -67.140625 C 16.210938 -66.484375 16.4375 -65.535156 16.4375 -64.296875 C 16.4375 -63.140625 16.257812 -62.253906 15.90625 -61.640625 C 14.664062 -59.335938 12.898438 -58.273438 10.609375 -58.453125 C 10.160156 -58.546875 9.78125 -58.632812 9.46875 -58.71875 C 9.164062 -58.8125 8.878906 -58.898438 8.609375 -58.984375 C 7.640625 -59.515625 6.84375 -60.488281 6.21875 -61.90625 C 5.601562 -63.320312 5.429688 -64.5625 5.703125 -65.625 C 6.316406 -67.476562 7.507812 -68.625 9.28125 -69.0625 Z M 9.28125 -69.0625 "/></g></g></g><g fill="#2d2d37" fill-opacity="1"><g transform="translate(79.250869, 102.069318)"><g><path d="M 32.75 -53.828125 C 33.007812 -53.734375 33.625 -53.6875 34.59375 -53.6875 C 35.570312 -53.507812 36.675781 -53.242188 37.90625 -52.890625 C 39.144531 -52.535156 40.164062 -51.914062 40.96875 -51.03125 C 43.082031 -48.820312 44.734375 -46.0625 45.921875 -42.75 C 47.117188 -39.4375 48.070312 -34.863281 48.78125 -29.03125 C 48.875 -28.144531 48.960938 -27.015625 49.046875 -25.640625 C 49.140625 -24.273438 49.226562 -22.84375 49.3125 -21.34375 C 49.40625 -19.84375 49.472656 -18.316406 49.515625 -16.765625 C 49.554688 -15.222656 49.578125 -13.742188 49.578125 -12.328125 C 49.660156 -9.503906 49.660156 -7.296875 49.578125 -5.703125 C 49.492188 -4.109375 49.363281 -3.09375 49.1875 -2.65625 C 48.300781 -0.351562 46.664062 0.75 44.28125 0.65625 C 43.476562 0.65625 42.851562 0.5 42.40625 0.1875 C 41.96875 -0.113281 41.617188 -0.53125 41.359375 -1.0625 C 40.742188 -2.03125 40.4375 -4.988281 40.4375 -9.9375 C 40.4375 -12.414062 40.410156 -14.890625 40.359375 -17.359375 C 40.316406 -19.835938 40.273438 -22.203125 40.234375 -24.453125 C 40.191406 -26.710938 40.125 -28.769531 40.03125 -30.625 C 39.945312 -32.476562 39.816406 -34.066406 39.640625 -35.390625 C 39.460938 -37.597656 39.148438 -39.453125 38.703125 -40.953125 C 38.265625 -42.460938 37.867188 -43.660156 37.515625 -44.546875 C 37.253906 -45.335938 36.632812 -45.972656 35.65625 -46.453125 C 34.6875 -46.941406 33.9375 -47.273438 33.40625 -47.453125 C 32.34375 -47.984375 31.328125 -47.894531 30.359375 -47.1875 C 27.703125 -45.15625 25.46875 -42.75 23.65625 -39.96875 C 21.84375 -37.1875 20.363281 -34.203125 19.21875 -31.015625 C 18.070312 -27.835938 17.164062 -24.566406 16.5 -21.203125 C 15.84375 -17.847656 15.378906 -14.582031 15.109375 -11.40625 C 14.753906 -8.84375 14.554688 -6.675781 14.515625 -4.90625 C 14.472656 -3.132812 14.363281 -1.984375 14.1875 -1.453125 C 13.738281 -0.484375 12.546875 0.0859375 10.609375 0.265625 C 8.835938 0.265625 7.6875 -0.0625 7.15625 -0.71875 C 6.625 -1.382812 6.269531 -2.820312 6.09375 -5.03125 C 6.007812 -6.269531 5.988281 -8.566406 6.03125 -11.921875 C 6.070312 -15.285156 6.179688 -19.882812 6.359375 -25.71875 C 6.535156 -31.550781 6.710938 -36.234375 6.890625 -39.765625 C 7.066406 -43.304688 7.242188 -45.691406 7.421875 -46.921875 C 7.773438 -49.304688 8.570312 -50.585938 9.8125 -50.765625 C 10.34375 -50.765625 10.960938 -50.328125 11.671875 -49.453125 C 12.109375 -48.035156 12.59375 -45.25 13.125 -41.09375 C 13.476562 -37.5625 13.785156 -35.796875 14.046875 -35.796875 C 14.222656 -35.796875 14.929688 -37.078125 16.171875 -39.640625 C 16.878906 -41.140625 17.804688 -42.726562 18.953125 -44.40625 C 20.109375 -46.082031 21.390625 -47.601562 22.796875 -48.96875 C 24.210938 -50.34375 25.757812 -51.492188 27.4375 -52.421875 C 29.113281 -53.359375 30.882812 -53.828125 32.75 -53.828125 Z M 32.75 -53.828125 "/></g></g></g><g fill="#2d2d37" fill-opacity="1"><g transform="translate(134.924016, 102.069318)"><g><path d="M 11.40625 -87.359375 C 11.664062 -87.441406 12.101562 -87.441406 12.71875 -87.359375 C 13.34375 -87.085938 13.785156 -86.25 14.046875 -84.84375 C 14.492188 -80.507812 14.828125 -76.195312 15.046875 -71.90625 C 15.265625 -67.625 15.421875 -63.316406 15.515625 -58.984375 C 15.515625 -57.222656 15.535156 -55.300781 15.578125 -53.21875 C 15.617188 -51.144531 15.660156 -49.222656 15.703125 -47.453125 C 15.753906 -45.691406 15.800781 -44.191406 15.84375 -42.953125 C 15.882812 -41.710938 15.90625 -41.09375 15.90625 -41.09375 C 16.257812 -41.09375 18.644531 -42.242188 23.0625 -44.546875 C 29.070312 -47.546875 33.863281 -49.816406 37.4375 -51.359375 C 41.019531 -52.910156 43.519531 -53.6875 44.9375 -53.6875 L 45.34375 -53.6875 C 46.84375 -53.425781 47.679688 -52.65625 47.859375 -51.375 C 48.035156 -50.09375 47.457031 -48.921875 46.125 -47.859375 C 44.539062 -46.703125 38.269531 -43.164062 27.3125 -37.25 C 23.769531 -35.394531 22 -34.289062 22 -33.9375 C 22 -33.84375 22.59375 -33.195312 23.78125 -32 C 24.976562 -30.8125 26.304688 -29.488281 27.765625 -28.03125 C 29.222656 -26.570312 30.59375 -25.222656 31.875 -23.984375 C 33.15625 -22.753906 33.882812 -22.050781 34.0625 -21.875 C 36.445312 -19.488281 38.5 -17.410156 40.21875 -15.640625 C 41.945312 -13.867188 43.390625 -12.367188 44.546875 -11.140625 C 46.578125 -9.015625 47.8125 -7.554688 48.25 -6.765625 C 48.601562 -6.054688 48.78125 -4.953125 48.78125 -3.453125 C 48.78125 -1.679688 48.25 -0.441406 47.1875 0.265625 C 46.570312 0.617188 45.957031 0.796875 45.34375 0.796875 C 44.632812 0.796875 43.96875 0.617188 43.34375 0.265625 C 42.726562 -0.171875 37.957031 -5.207031 29.03125 -14.84375 L 15.640625 -29.296875 L 15.640625 -22.53125 C 15.640625 -9.363281 15.375 -2.296875 14.84375 -1.328125 C 14.3125 -0.179688 13.164062 0.390625 11.40625 0.390625 C 9.457031 0.390625 8.085938 -0.359375 7.296875 -1.859375 L 6.625 -3.046875 L 6.625 -22.140625 C 6.625 -31.421875 6.753906 -40.015625 7.015625 -47.921875 C 7.285156 -55.828125 7.644531 -63.671875 8.09375 -71.453125 C 8.4375 -77.015625 8.851562 -80.945312 9.34375 -83.25 C 9.832031 -85.550781 10.519531 -86.921875 11.40625 -87.359375 Z M 11.40625 -87.359375 "/></g></g></g><g fill="#2d2d37" fill-opacity="1"><g transform="translate(187.283281, 102.069318)"><g><path d="M 24.390625 -53.421875 C 25.003906 -53.515625 26.109375 -53.515625 27.703125 -53.421875 C 31.503906 -53.242188 34.773438 -52.179688 37.515625 -50.234375 C 40.253906 -48.296875 42.242188 -45.46875 43.484375 -41.75 C 43.921875 -40.519531 44.160156 -39.285156 44.203125 -38.046875 C 44.253906 -36.804688 44.191406 -35.476562 44.015625 -34.0625 C 43.566406 -31.59375 42.566406 -29.515625 41.015625 -27.828125 C 39.472656 -26.148438 37.617188 -24.78125 35.453125 -23.71875 C 33.296875 -22.664062 31 -21.894531 28.5625 -21.40625 C 26.132812 -20.925781 23.859375 -20.6875 21.734375 -20.6875 C 21.203125 -20.6875 20.582031 -20.6875 19.875 -20.6875 C 19.175781 -20.6875 18.472656 -20.75 17.765625 -20.875 C 17.054688 -21.007812 16.367188 -21.1875 15.703125 -21.40625 C 15.046875 -21.625 14.582031 -21.910156 14.3125 -22.265625 C 13.957031 -22.617188 13.78125 -23.238281 13.78125 -24.125 C 13.78125 -24.914062 13.976562 -25.53125 14.375 -25.96875 C 14.78125 -26.414062 15.507812 -26.773438 16.5625 -27.046875 C 17.007812 -27.128906 17.675781 -27.257812 18.5625 -27.4375 C 19.445312 -27.613281 20.59375 -27.835938 22 -28.109375 C 25.269531 -28.640625 27.65625 -29.234375 29.15625 -29.890625 C 30.664062 -30.554688 32.082031 -31.507812 33.40625 -32.75 C 35.175781 -34.507812 36.0625 -36.007812 36.0625 -37.25 C 36.0625 -38.394531 35.769531 -39.453125 35.1875 -40.421875 C 34.613281 -41.398438 33.863281 -42.265625 32.9375 -43.015625 C 32.007812 -43.765625 30.992188 -44.335938 29.890625 -44.734375 C 28.785156 -45.140625 27.703125 -45.34375 26.640625 -45.34375 C 24.960938 -45.34375 23.347656 -44.898438 21.796875 -44.015625 C 20.253906 -43.128906 18.882812 -42.019531 17.6875 -40.6875 C 16.5 -39.363281 15.484375 -37.882812 14.640625 -36.25 C 13.804688 -34.613281 13.164062 -33.046875 12.71875 -31.546875 C 12.457031 -30.484375 12.328125 -28.316406 12.328125 -25.046875 C 12.410156 -23.640625 12.453125 -22.472656 12.453125 -21.546875 C 12.453125 -20.617188 12.5 -19.800781 12.59375 -19.09375 C 12.675781 -18.207031 12.960938 -17.234375 13.453125 -16.171875 C 13.941406 -15.109375 14.515625 -14.113281 15.171875 -13.1875 C 15.835938 -12.257812 16.566406 -11.421875 17.359375 -10.671875 C 18.160156 -9.921875 18.957031 -9.320312 19.75 -8.875 C 22.132812 -7.90625 24.429688 -7.421875 26.640625 -7.421875 C 30.179688 -7.421875 33.429688 -8.328125 36.390625 -10.140625 C 39.347656 -11.953125 42.109375 -13.960938 44.671875 -16.171875 C 46.972656 -18.296875 48.429688 -19.359375 49.046875 -19.359375 C 49.484375 -19.179688 49.742188 -18.601562 49.828125 -17.625 C 49.921875 -16.65625 49.835938 -15.6875 49.578125 -14.71875 C 49.046875 -13.65625 48.316406 -12.503906 47.390625 -11.265625 C 46.460938 -10.023438 45.398438 -8.851562 44.203125 -7.75 C 43.015625 -6.644531 41.800781 -5.609375 40.5625 -4.640625 C 39.320312 -3.671875 38.175781 -2.875 37.125 -2.25 C 34.113281 -0.394531 30.222656 0.53125 25.453125 0.53125 C 22.617188 0.53125 20.253906 0.175781 18.359375 -0.53125 C 16.460938 -1.238281 14.410156 -2.5625 12.203125 -4.5 C 10.867188 -5.738281 9.738281 -6.890625 8.8125 -7.953125 C 7.882812 -9.015625 7.15625 -10.164062 6.625 -11.40625 C 4.6875 -15.375 3.847656 -20.144531 4.109375 -25.71875 C 4.285156 -30.40625 5.015625 -34.378906 6.296875 -37.640625 C 7.578125 -40.910156 9.628906 -43.960938 12.453125 -46.796875 C 15.898438 -50.421875 19.878906 -52.628906 24.390625 -53.421875 Z M 24.390625 -53.421875 "/></g></g></g><g fill="#2d2d37" fill-opacity="1"><g transform="translate(240.040212, 102.069318)"><g><path d="M 6.890625 -52.5 C 7.597656 -53.289062 8.523438 -53.421875 9.671875 -52.890625 C 10.378906 -52.535156 11.132812 -50.546875 11.9375 -46.921875 C 12.550781 -43.648438 13.078125 -42.015625 13.515625 -42.015625 C 13.691406 -42.015625 14.132812 -42.503906 14.84375 -43.484375 C 16.519531 -45.867188 18.570312 -48.03125 21 -49.96875 C 23.4375 -51.914062 26.203125 -52.890625 29.296875 -52.890625 C 31.148438 -52.890625 32.894531 -52.46875 34.53125 -51.625 C 36.164062 -50.789062 37.335938 -49.488281 38.046875 -47.71875 C 38.304688 -47.007812 38.414062 -46.257812 38.375 -45.46875 C 38.332031 -44.675781 38.085938 -44.101562 37.640625 -43.75 C 37.296875 -43.394531 36.632812 -43.21875 35.65625 -43.21875 C 34.507812 -43.21875 33.273438 -43.394531 31.953125 -43.75 C 30.890625 -44.101562 29.785156 -44.28125 28.640625 -44.28125 C 27.304688 -44.28125 26.109375 -43.925781 25.046875 -43.21875 C 23.992188 -42.507812 23.023438 -41.625 22.140625 -40.5625 C 21.253906 -39.5 20.476562 -38.347656 19.8125 -37.109375 C 19.15625 -35.878906 18.601562 -34.734375 18.15625 -33.671875 C 16.832031 -29.785156 15.945312 -26.140625 15.5 -22.734375 C 15.0625 -19.328125 14.800781 -15.59375 14.71875 -11.53125 C 14.71875 -6.9375 14.582031 -4.109375 14.3125 -3.046875 C 14.132812 -2.078125 13.691406 -1.328125 12.984375 -0.796875 C 12.015625 -0.0859375 11.132812 0.265625 10.34375 0.265625 C 9.457031 0.265625 8.75 -0.0195312 8.21875 -0.59375 C 7.6875 -1.164062 7.285156 -1.847656 7.015625 -2.640625 C 6.753906 -3.441406 6.578125 -4.285156 6.484375 -5.171875 C 6.398438 -6.054688 6.359375 -6.804688 6.359375 -7.421875 C 6.097656 -11.046875 5.96875 -18.910156 5.96875 -31.015625 C 6.050781 -35.785156 6.09375 -39.582031 6.09375 -42.40625 C 6.09375 -45.238281 6.140625 -47.234375 6.234375 -48.390625 C 6.410156 -50.679688 6.628906 -52.050781 6.890625 -52.5 Z M 6.890625 -52.5 "/></g></g></g></svg>