<?xml version="1.0" encoding="UTF-8"?>
<svg id="Layer_1" data-name="Layer 1" xmlns="http://www.w3.org/2000/svg" viewBox="0 0 294.85 150.13">
  <defs>
    <style>
      .cls-1 {
        fill: #2D2D37;

      }
    </style>
  </defs>
  <path class="cls-1" d="M97.05,1.07c9.68,1.74,18.71,5.08,26.53,9.59,7.82,4.58,11.61,8.06,11.61,10.68,0,.87-1.45,3.2-3.14,5.08-3.63,3.92-4.43,6.54-3.14,9.95,1.94,5.3,6.93,8.21,12.74,7.55,7.34-.87,8.31-.36,21.45,11.47,15.48,14.02,16.45,15.18,16.45,19.83s-1.53,6.54-14.19,17.72c-13.79,12.06-14.11,12.27-19.43,12.27h-4.52l-11.21-10.02c-13.06-11.62-15.97-15.11-15.97-19.32,0-2.54.48-3.34,3.87-6.17,4.76-4.07,5.81-5.74,5.81-9.22,0-2.11-.65-3.2-3.14-5.45-2.82-2.54-3.55-2.83-7.26-2.83s-4.43-.29-8.63-3.7c-23.79-19.39-61.28-5.66-64.51,23.6-1.61,15.25,9.6,31.3,25.4,36.38,13.39,4.21,29.11,1.74,39.19-6.25,2.5-1.96,5-3.56,5.48-3.56,1.21,0,24.27,20.84,25.48,23.02.48.87.89,2.83.89,4.28,0,2.4-.65,3.27-4.6,6.83-13.79,11.98-34.19,18.23-56.69,17.21-11.37-.51-19.51-2.4-29.03-6.68C20.13,131.43,3.92,109.79.45,81.98c-2.74-22.3,7.1-45.83,25.88-61.95C37.54,10.37,51.17,3.61,64.64,1c6.93-1.38,24.92-1.31,32.41.07ZM236.79,2.74c26.04,8.13,44.11,24.18,53.54,47.86,9.92,24.91,3.14,55.7-16.69,75.6-11.29,11.33-24.51,18.52-40.88,22.3-8.63,1.96-29.27,1.96-37.9,0-11.13-2.54-22.9-7.84-31.04-14.02-6.53-4.87-8.31-9.3-5.72-13.87,1.69-2.9,23.55-21.93,25.24-21.93.81,0,3.31,1.45,5.48,3.2,7.5,5.88,15.48,8.42,26.13,8.42,12.1,0,20.16-2.83,27.98-9.8,8.47-7.55,12.01-15.76,11.45-27.16-.24-6.25-.56-7.55-3.31-12.71-3.79-7.12-6.85-10.75-12.9-14.67-14.35-9.59-36.37-8.42-49.19,2.54-2.42,2.03-4.84,3.7-5.48,3.7-1.69,0-24.59-20.99-25.64-23.46-3.06-7.26,3.14-14.09,19.76-21.42C191.07,1.29,198.65-.09,215.83.13c12.66.22,13.71.36,20.96,2.61Z"/>
</svg>