<svg xmlns="http://www.w3.org/2000/svg" xmlns:xlink="http://www.w3.org/1999/xlink" width="95" zoomAndPan="magnify" viewBox="0 0 285 131.249995" height="44" preserveAspectRatio="xMidYMid meet" version="1.0"><defs><g/></defs><g fill="#dee4e6" fill-opacity="1"><g transform="translate(-3.577592, 102.187927)"><g><path d="M 15.25 -83.375 C 16.476562 -84.519531 17.316406 -84.164062 17.765625 -82.3125 C 17.847656 -81.875 17.910156 -79.734375 17.953125 -75.890625 C 18.003906 -72.046875 17.984375 -66.410156 17.890625 -58.984375 C 17.890625 -53.503906 17.910156 -48.398438 17.953125 -43.671875 C 18.003906 -38.941406 18.050781 -34.785156 18.09375 -31.203125 C 18.132812 -27.628906 18.222656 -24.691406 18.359375 -22.390625 C 18.492188 -20.097656 18.601562 -18.597656 18.6875 -17.890625 C 19.132812 -15.953125 19.773438 -14.429688 20.609375 -13.328125 C 21.453125 -12.222656 22.445312 -11.378906 23.59375 -10.796875 C 24.738281 -10.222656 26.039062 -9.847656 27.5 -9.671875 C 28.957031 -9.492188 30.613281 -9.40625 32.46875 -9.40625 C 36.800781 -9.40625 41.265625 -9.9375 45.859375 -11 C 47.984375 -11.445312 49.75 -11.710938 51.15625 -11.796875 C 53.195312 -11.972656 54.65625 -11.398438 55.53125 -10.078125 C 56.0625 -9.453125 56.328125 -8.695312 56.328125 -7.8125 C 56.242188 -6.757812 55.671875 -5.851562 54.609375 -5.09375 C 53.546875 -4.34375 52.21875 -3.679688 50.625 -3.109375 C 49.039062 -2.535156 47.273438 -2.070312 45.328125 -1.71875 C 43.390625 -1.363281 41.488281 -1.097656 39.625 -0.921875 C 37.769531 -0.742188 36.066406 -0.609375 34.515625 -0.515625 C 32.972656 -0.429688 31.765625 -0.390625 30.890625 -0.390625 C 27.171875 -0.390625 24.03125 -0.742188 21.46875 -1.453125 C 18.90625 -2.160156 16.804688 -3.265625 15.171875 -4.765625 C 13.535156 -6.273438 12.296875 -8.265625 11.453125 -10.734375 C 10.617188 -13.210938 10.023438 -16.21875 9.671875 -19.75 C 9.585938 -20.8125 9.519531 -22.222656 9.46875 -23.984375 C 9.425781 -25.753906 9.40625 -27.722656 9.40625 -29.890625 C 9.40625 -32.054688 9.425781 -34.332031 9.46875 -36.71875 C 9.519531 -39.101562 9.585938 -41.441406 9.671875 -43.734375 C 10.648438 -61.328125 11.84375 -73.210938 13.25 -79.390625 C 13.78125 -81.421875 14.445312 -82.75 15.25 -83.375 Z M 15.25 -83.375 "/></g></g></g><g fill="#dee4e6" fill-opacity="1"><g transform="translate(56.463441, 102.187927)"><g><path d="M 9.28125 -53.15625 C 10.164062 -53.507812 11.179688 -53.460938 12.328125 -53.015625 C 13.296875 -52.660156 14.003906 -51.425781 14.453125 -49.3125 C 14.628906 -48.332031 14.804688 -46.78125 14.984375 -44.65625 C 15.160156 -42.539062 15.335938 -39.847656 15.515625 -36.578125 C 15.953125 -26.953125 16.210938 -19.421875 16.296875 -13.984375 C 16.390625 -8.546875 16.257812 -5.164062 15.90625 -3.84375 C 15.550781 -2.25 14.953125 -1.144531 14.109375 -0.53125 C 13.273438 0.0820312 12.148438 0.390625 10.734375 0.390625 C 8.785156 0.390625 7.59375 -0.269531 7.15625 -1.59375 C 6.800781 -2.5625 6.644531 -5.738281 6.6875 -11.125 C 6.738281 -16.519531 6.941406 -24.210938 7.296875 -34.203125 C 7.472656 -39.148438 7.601562 -42.96875 7.6875 -45.65625 C 7.769531 -48.351562 7.859375 -49.96875 7.953125 -50.5 C 8.035156 -51.289062 8.207031 -51.882812 8.46875 -52.28125 C 8.738281 -52.6875 9.007812 -52.976562 9.28125 -53.15625 Z M 9.28125 -69.0625 C 9.894531 -69.238281 10.664062 -69.300781 11.59375 -69.25 C 12.519531 -69.207031 13.25 -69.054688 13.78125 -68.796875 C 14.664062 -68.347656 15.328125 -67.789062 15.765625 -67.125 C 16.210938 -66.46875 16.4375 -65.519531 16.4375 -64.28125 C 16.4375 -63.132812 16.257812 -62.253906 15.90625 -61.640625 C 14.664062 -59.335938 12.898438 -58.273438 10.609375 -58.453125 C 10.160156 -58.535156 9.78125 -58.617188 9.46875 -58.703125 C 9.164062 -58.796875 8.878906 -58.890625 8.609375 -58.984375 C 7.640625 -59.515625 6.84375 -60.484375 6.21875 -61.890625 C 5.601562 -63.304688 5.429688 -64.546875 5.703125 -65.609375 C 6.316406 -67.460938 7.507812 -68.613281 9.28125 -69.0625 Z M 9.28125 -69.0625 "/></g></g></g><g fill="#dee4e6" fill-opacity="1"><g transform="translate(79.26048, 102.187927)"><g><path d="M 32.734375 -53.8125 C 33.003906 -53.726562 33.625 -53.6875 34.59375 -53.6875 C 35.5625 -53.507812 36.664062 -53.242188 37.90625 -52.890625 C 39.144531 -52.535156 40.160156 -51.914062 40.953125 -51.03125 C 43.078125 -48.820312 44.734375 -46.0625 45.921875 -42.75 C 47.117188 -39.4375 48.070312 -34.863281 48.78125 -29.03125 C 48.863281 -28.144531 48.945312 -27.015625 49.03125 -25.640625 C 49.125 -24.273438 49.210938 -22.84375 49.296875 -21.34375 C 49.390625 -19.84375 49.457031 -18.316406 49.5 -16.765625 C 49.550781 -15.222656 49.578125 -13.742188 49.578125 -12.328125 C 49.660156 -9.492188 49.65625 -7.28125 49.5625 -5.6875 C 49.476562 -4.101562 49.347656 -3.09375 49.171875 -2.65625 C 48.285156 -0.351562 46.648438 0.75 44.265625 0.65625 C 43.472656 0.65625 42.851562 0.5 42.40625 0.1875 C 41.96875 -0.113281 41.617188 -0.53125 41.359375 -1.0625 C 40.734375 -2.03125 40.421875 -4.988281 40.421875 -9.9375 C 40.421875 -12.414062 40.398438 -14.890625 40.359375 -17.359375 C 40.316406 -19.835938 40.269531 -22.203125 40.21875 -24.453125 C 40.175781 -26.703125 40.109375 -28.753906 40.015625 -30.609375 C 39.929688 -32.472656 39.800781 -34.066406 39.625 -35.390625 C 39.445312 -37.597656 39.140625 -39.453125 38.703125 -40.953125 C 38.265625 -42.453125 37.867188 -43.644531 37.515625 -44.53125 C 37.242188 -45.332031 36.625 -45.972656 35.65625 -46.453125 C 34.6875 -46.941406 33.9375 -47.273438 33.40625 -47.453125 C 32.34375 -47.984375 31.328125 -47.894531 30.359375 -47.1875 C 27.703125 -45.15625 25.46875 -42.742188 23.65625 -39.953125 C 21.84375 -37.171875 20.363281 -34.191406 19.21875 -31.015625 C 18.070312 -27.835938 17.164062 -24.566406 16.5 -21.203125 C 15.84375 -17.847656 15.378906 -14.582031 15.109375 -11.40625 C 14.753906 -8.84375 14.554688 -6.675781 14.515625 -4.90625 C 14.472656 -3.132812 14.363281 -1.984375 14.1875 -1.453125 C 13.738281 -0.484375 12.546875 0.0859375 10.609375 0.265625 C 8.835938 0.265625 7.6875 -0.0625 7.15625 -0.71875 C 6.625 -1.382812 6.269531 -2.820312 6.09375 -5.03125 C 6.007812 -6.269531 5.988281 -8.566406 6.03125 -11.921875 C 6.070312 -15.285156 6.179688 -19.882812 6.359375 -25.71875 C 6.535156 -31.550781 6.710938 -36.234375 6.890625 -39.765625 C 7.066406 -43.296875 7.242188 -45.679688 7.421875 -46.921875 C 7.773438 -49.304688 8.570312 -50.585938 9.8125 -50.765625 C 10.34375 -50.765625 10.960938 -50.320312 11.671875 -49.4375 C 12.109375 -48.019531 12.59375 -45.238281 13.125 -41.09375 C 13.476562 -37.550781 13.785156 -35.78125 14.046875 -35.78125 C 14.222656 -35.78125 14.929688 -37.0625 16.171875 -39.625 C 16.878906 -41.132812 17.804688 -42.726562 18.953125 -44.40625 C 20.097656 -46.082031 21.378906 -47.601562 22.796875 -48.96875 C 24.210938 -50.34375 25.757812 -51.492188 27.4375 -52.421875 C 29.113281 -53.347656 30.878906 -53.8125 32.734375 -53.8125 Z M 32.734375 -53.8125 "/></g></g></g><g fill="#dee4e6" fill-opacity="1"><g transform="translate(134.927678, 102.187927)"><g><path d="M 11.40625 -87.34375 C 11.664062 -87.4375 12.101562 -87.4375 12.71875 -87.34375 C 13.34375 -87.082031 13.785156 -86.242188 14.046875 -84.828125 C 14.492188 -80.492188 14.828125 -76.1875 15.046875 -71.90625 C 15.265625 -67.625 15.421875 -63.316406 15.515625 -58.984375 C 15.515625 -57.210938 15.535156 -55.289062 15.578125 -53.21875 C 15.617188 -51.144531 15.660156 -49.222656 15.703125 -47.453125 C 15.742188 -45.679688 15.785156 -44.175781 15.828125 -42.9375 C 15.878906 -41.707031 15.90625 -41.09375 15.90625 -41.09375 C 16.257812 -41.09375 18.644531 -42.238281 23.0625 -44.53125 C 29.070312 -47.539062 33.863281 -49.816406 37.4375 -51.359375 C 41.019531 -52.910156 43.519531 -53.6875 44.9375 -53.6875 L 45.328125 -53.6875 C 46.828125 -53.414062 47.664062 -52.640625 47.84375 -51.359375 C 48.019531 -50.078125 47.445312 -48.90625 46.125 -47.84375 C 44.53125 -46.695312 38.253906 -43.164062 27.296875 -37.25 C 23.765625 -35.394531 22 -34.289062 22 -33.9375 C 22 -33.84375 22.59375 -33.195312 23.78125 -32 C 24.976562 -30.8125 26.304688 -29.488281 27.765625 -28.03125 C 29.222656 -26.570312 30.59375 -25.222656 31.875 -23.984375 C 33.15625 -22.753906 33.882812 -22.050781 34.0625 -21.875 C 36.445312 -19.488281 38.5 -17.410156 40.21875 -15.640625 C 41.945312 -13.867188 43.382812 -12.367188 44.53125 -11.140625 C 46.5625 -9.015625 47.800781 -7.554688 48.25 -6.765625 C 48.601562 -6.054688 48.78125 -4.953125 48.78125 -3.453125 C 48.78125 -1.679688 48.25 -0.441406 47.1875 0.265625 C 46.570312 0.617188 45.953125 0.796875 45.328125 0.796875 C 44.617188 0.796875 43.957031 0.617188 43.34375 0.265625 C 42.726562 -0.171875 37.957031 -5.207031 29.03125 -14.84375 L 15.640625 -29.296875 L 15.640625 -22.53125 C 15.640625 -9.363281 15.375 -2.296875 14.84375 -1.328125 C 14.3125 -0.179688 13.164062 0.390625 11.40625 0.390625 C 9.457031 0.390625 8.085938 -0.359375 7.296875 -1.859375 L 6.625 -3.046875 L 6.625 -22.140625 C 6.625 -31.410156 6.753906 -40 7.015625 -47.90625 C 7.285156 -55.820312 7.640625 -63.664062 8.078125 -71.4375 C 8.429688 -77.007812 8.851562 -80.941406 9.34375 -83.234375 C 9.832031 -85.535156 10.519531 -86.90625 11.40625 -87.34375 Z M 11.40625 -87.34375 "/></g></g></g><g fill="#dee4e6" fill-opacity="1"><g transform="translate(187.28134, 102.187927)"><g><path d="M 24.390625 -53.421875 C 25.003906 -53.503906 26.109375 -53.503906 27.703125 -53.421875 C 31.503906 -53.242188 34.773438 -52.179688 37.515625 -50.234375 C 40.253906 -48.285156 42.238281 -45.457031 43.46875 -41.75 C 43.914062 -40.507812 44.160156 -39.269531 44.203125 -38.03125 C 44.242188 -36.800781 44.175781 -35.476562 44 -34.0625 C 43.5625 -31.59375 42.566406 -29.515625 41.015625 -27.828125 C 39.472656 -26.148438 37.617188 -24.78125 35.453125 -23.71875 C 33.285156 -22.664062 30.988281 -21.894531 28.5625 -21.40625 C 26.132812 -20.914062 23.859375 -20.671875 21.734375 -20.671875 C 21.203125 -20.671875 20.582031 -20.671875 19.875 -20.671875 C 19.175781 -20.671875 18.472656 -20.738281 17.765625 -20.875 C 17.054688 -21.007812 16.367188 -21.1875 15.703125 -21.40625 C 15.046875 -21.625 14.582031 -21.910156 14.3125 -22.265625 C 13.957031 -22.617188 13.78125 -23.238281 13.78125 -24.125 C 13.78125 -24.914062 13.976562 -25.53125 14.375 -25.96875 C 14.78125 -26.414062 15.507812 -26.773438 16.5625 -27.046875 C 17.007812 -27.128906 17.671875 -27.257812 18.546875 -27.4375 C 19.429688 -27.613281 20.582031 -27.832031 22 -28.09375 C 25.269531 -28.625 27.65625 -29.222656 29.15625 -29.890625 C 30.65625 -30.554688 32.070312 -31.503906 33.40625 -32.734375 C 35.164062 -34.503906 36.046875 -36.007812 36.046875 -37.25 C 36.046875 -38.394531 35.757812 -39.453125 35.1875 -40.421875 C 34.613281 -41.398438 33.863281 -42.265625 32.9375 -43.015625 C 32.007812 -43.765625 30.992188 -44.335938 29.890625 -44.734375 C 28.785156 -45.128906 27.703125 -45.328125 26.640625 -45.328125 C 24.960938 -45.328125 23.347656 -44.882812 21.796875 -44 C 20.253906 -43.125 18.882812 -42.019531 17.6875 -40.6875 C 16.5 -39.363281 15.484375 -37.882812 14.640625 -36.25 C 13.804688 -34.613281 13.164062 -33.046875 12.71875 -31.546875 C 12.457031 -30.484375 12.328125 -28.316406 12.328125 -25.046875 C 12.410156 -23.640625 12.453125 -22.46875 12.453125 -21.53125 C 12.453125 -20.601562 12.5 -19.789062 12.59375 -19.09375 C 12.675781 -18.207031 12.960938 -17.234375 13.453125 -16.171875 C 13.941406 -15.109375 14.515625 -14.113281 15.171875 -13.1875 C 15.835938 -12.257812 16.566406 -11.421875 17.359375 -10.671875 C 18.160156 -9.921875 18.957031 -9.320312 19.75 -8.875 C 22.132812 -7.90625 24.429688 -7.421875 26.640625 -7.421875 C 30.171875 -7.421875 33.414062 -8.328125 36.375 -10.140625 C 39.34375 -11.953125 42.109375 -13.960938 44.671875 -16.171875 C 46.960938 -18.296875 48.421875 -19.359375 49.046875 -19.359375 C 49.484375 -19.179688 49.742188 -18.601562 49.828125 -17.625 C 49.921875 -16.65625 49.835938 -15.6875 49.578125 -14.71875 C 49.046875 -13.65625 48.316406 -12.503906 47.390625 -11.265625 C 46.460938 -10.023438 45.398438 -8.851562 44.203125 -7.75 C 43.015625 -6.644531 41.800781 -5.609375 40.5625 -4.640625 C 39.320312 -3.671875 38.171875 -2.875 37.109375 -2.25 C 34.109375 -0.394531 30.222656 0.53125 25.453125 0.53125 C 22.617188 0.53125 20.253906 0.175781 18.359375 -0.53125 C 16.460938 -1.238281 14.40625 -2.5625 12.1875 -4.5 C 10.863281 -5.738281 9.738281 -6.890625 8.8125 -7.953125 C 7.882812 -9.015625 7.15625 -10.164062 6.625 -11.40625 C 4.6875 -15.375 3.847656 -20.144531 4.109375 -25.71875 C 4.285156 -30.394531 5.015625 -34.367188 6.296875 -37.640625 C 7.578125 -40.910156 9.628906 -43.957031 12.453125 -46.78125 C 15.898438 -50.40625 19.878906 -52.617188 24.390625 -53.421875 Z M 24.390625 -53.421875 "/></g></g></g><g fill="#dee4e6" fill-opacity="1"><g transform="translate(240.032628, 102.187927)"><g><path d="M 6.890625 -52.484375 C 7.597656 -53.285156 8.523438 -53.421875 9.671875 -52.890625 C 10.378906 -52.535156 11.128906 -50.546875 11.921875 -46.921875 C 12.546875 -43.648438 13.078125 -42.015625 13.515625 -42.015625 C 13.691406 -42.015625 14.132812 -42.5 14.84375 -43.46875 C 16.519531 -45.851562 18.570312 -48.019531 21 -49.96875 C 23.4375 -51.914062 26.203125 -52.890625 29.296875 -52.890625 C 31.148438 -52.890625 32.894531 -52.46875 34.53125 -51.625 C 36.164062 -50.789062 37.335938 -49.488281 38.046875 -47.71875 C 38.304688 -47.007812 38.414062 -46.253906 38.375 -45.453125 C 38.332031 -44.660156 38.085938 -44.085938 37.640625 -43.734375 C 37.285156 -43.378906 36.625 -43.203125 35.65625 -43.203125 C 34.507812 -43.203125 33.269531 -43.378906 31.9375 -43.734375 C 30.882812 -44.085938 29.78125 -44.265625 28.625 -44.265625 C 27.300781 -44.265625 26.109375 -43.910156 25.046875 -43.203125 C 23.984375 -42.503906 23.007812 -41.625 22.125 -40.5625 C 21.25 -39.5 20.476562 -38.347656 19.8125 -37.109375 C 19.15625 -35.867188 18.601562 -34.722656 18.15625 -33.671875 C 16.832031 -29.773438 15.945312 -26.125 15.5 -22.71875 C 15.0625 -19.320312 14.800781 -15.59375 14.71875 -11.53125 C 14.71875 -6.9375 14.582031 -4.109375 14.3125 -3.046875 C 14.132812 -2.078125 13.691406 -1.328125 12.984375 -0.796875 C 12.015625 -0.0859375 11.132812 0.265625 10.34375 0.265625 C 9.457031 0.265625 8.75 -0.0195312 8.21875 -0.59375 C 7.6875 -1.164062 7.285156 -1.847656 7.015625 -2.640625 C 6.753906 -3.441406 6.578125 -4.285156 6.484375 -5.171875 C 6.398438 -6.054688 6.359375 -6.804688 6.359375 -7.421875 C 6.097656 -11.046875 5.96875 -18.910156 5.96875 -31.015625 C 6.050781 -35.785156 6.09375 -39.582031 6.09375 -42.40625 C 6.09375 -45.238281 6.140625 -47.226562 6.234375 -48.375 C 6.410156 -50.675781 6.628906 -52.046875 6.890625 -52.484375 Z M 6.890625 -52.484375 "/></g></g></g></svg>